<?xml version="1.0" encoding="UTF-8"?>
<!DOCTYPE svg PUBLIC "-//W3C//DTD SVG 1.1//EN" "http://www.w3.org/Graphics/SVG/1.1/DTD/svg11.dtd">
<!-- Creator: CorelDRAW X5 -->
<svg xmlns="http://www.w3.org/2000/svg" xml:space="preserve" width="742px" height="958px" style="shape-rendering:geometricPrecision; text-rendering:geometricPrecision; image-rendering:optimizeQuality; fill-rule:evenodd; clip-rule:evenodd"
viewBox="0 0 742 957.678"
 xmlns:xlink="http://www.w3.org/1999/xlink">
 <defs>
  <style type="text/css">
   <![CDATA[
    .fil0 {fill:#2B2A29}
    .fil2 {fill:#393185}
    .fil3 {fill:#E31E24}
    .fil4 {fill:#FEFEFE}
    .fil1 {fill:#FFED00}
   ]]>
  </style>
 </defs>
 <g id="Layer_x0020_1">
  <metadata id="CorelCorpID_0Corel-Layer"/>
  <g id="_223601864">
   <path id="_223602464" class="fil0" d="M86.3269 884.791c-45.7035,-11.6497 -83.3409,-44.5082 -86.0292,-93.1988l-0.298832 -791.292 742.004 -0.298832 0 795.175c-1.49298,47.4953 -34.0526,89.614 -83.9374,91.107 -64.224,0 -131.136,-4.18128 -195.06,1.79299 -35.248,3.28597 -64.8205,19.117 -86.6269,46.8977l-14.6368 22.7029c-16.4298,-31.0667 -28.976,-48.9895 -61.5357,-63.0287 -13.4415,-5.07896 -26.5854,-8.06609 -41.5211,-8.66257l-153.837 0.895314 -8.9614 -0.298832 -9.55907 -1.79181z"/>
   <path id="_223602392" class="fil1" d="M265.714 849.892l-144.408 0.774836c-40.4297,0.129927 -87.7041,-36.037 -87.7041,-78.7911l-0.128746 -731.725 675.022 -0.517345 0 735.73c0,38.7501 -29.4497,74.9158 -68.3285,74.9158l-164.299 0.517345c-54.1204,0 -92.2244,22.9911 -112.891,55.7988 -16.5338,-33.4538 -59.8041,-56.8323 -97.262,-56.7036z"/>
   <path id="_223602320" class="fil0" d="M498.019 556.43c-10.5064,0 -28.7244,-8.51138 -38.0331,-17.9523l-38.9639 -59.4439c3.058,-8.24444 -4.38916,-4.65492 -11.9686,-32.3152 -3.85646,-3.85646 -6.25066,-7.3137 -8.64367,-12.1009 1.06304,10.6386 -1.19769,18.7508 -5.9849,26.3303l-5.31873 0c-14.6286,-26.596 -36.1716,-34.0432 -46.411,-34.1766 -22.6073,-0.265759 -41.4915,1.59574 -71.5448,2.12844 -18.0858,0.265759 -20.48,-16.757 -20.2142,-25.1349 0.39923,-14.8932 4.38916,-27.5268 10.1071,-41.3569 -12.3678,-5.9849 23.0065,-42.023 42.9538,-57.1831 9.30866,-19.9473 7.97869,-43.7511 -5.31991,-67.6883 -7.8464,-9.30866 -22.4738,-5.4522 -34.4424,-6.64871l-2.65996 -9.44213 -65.1618 -6.64871c-1.32998,2.65877 -2.79224,6.64871 -5.31873,10.6386 -4.12222,2.79224 -8.24563,0 -13.5644,1.32998 -13.1651,13.9624 -7.3137,20.6123 -11.5694,31.3832 -1.72921,4.65492 -7.04794,10.6386 -9.0429,16.8893 -2.26073,7.44717 -2.3942,15.1601 -4.52145,21.0115 -11.4371,18.0846 -21.4108,36.3039 -29.1237,54.3897 -4.38798,-42.4223 4.52145,-49.2033 7.58064,-60.7738 1.72803,-6.64871 2.79224,-16.2231 4.25569,-21.0103 1.99379,-6.11719 5.71796,-7.71411 8.64367,-15.9586 5.31873,-15.2924 0.132289,-11.7029 7.44717,-26.3303l-10.7721 1.8615c-6.64871,-1.46227 2.52649,-9.70789 3.19147,-15.0266 1.99497,-3.72417 9.97365,-1.06422 15.4259,-3.5907 5.71914,-9.70789 3.98993,-30.3202 20.7458,-29.3894 5.85143,0.265759 9.44213,6.38295 7.44717,11.7029 10.3729,-0.931929 23.8038,-5.05415 32.9801,-10.3729 -2.52767,-3.45841 -2.3942,-5.85143 -2.3942,-9.5756 -5.58567,-4.38798 -12.8994,-11.8351 -16.7558,-18.2181 -10.3729,-3.98993 -16.8893,-12.5001 -23.2722,-21.4108 -21.2773,-3.98875 -29.256,-26.596 -47.8733,-38.5646 -4.1234,-3.85646 -9.44213,-13.2986 -8.11216,-19.9473 49.2033,19.9473 110.375,7.97869 155.723,42.6869 17.2873,26.5972 9.17519,59.8431 37.2347,73.1417 9.70789,1.3288 15.9586,1.59574 24.4688,-3.85646 -6.38295,-9.97483 -9.97365,-20.3465 -10.1059,-34.7093 -5.58567,-3.72299 3.5907,-31.9159 17.4208,-42.6869 -1.32998,-2.65996 -3.45841,-9.30866 -10.5064,-9.30866 -13.4309,0 -25.266,22.6061 -39.8946,13.2974 5.31873,-11.9686 6.51642,-32.4474 21.4108,-36.8354 18.7496,-5.71914 31.2509,6.38295 39.7611,16.8881 10.5064,-9.17519 19.815,-21.1438 35.6401,-17.2873 16.0908,1.46227 21.4096,18.6173 28.0595,33.2459 -15.1601,18.4839 -37.9008,-10.2406 -56.9174,-1.32998 5.71796,7.3137 26.7295,40.9588 16.7558,48.1391 3.98993,-0.265759 5.31991,10.1071 -5.85143,20.8792 5.71914,13.0317 19.0166,16.7558 32.7144,13.5644 27.926,-32.0494 27.926,-97.2112 90.2956,-95.8812 42.6869,-2.65996 85.1091,-6.64871 129.126,-23.8038 0,23.8038 -11.8351,35.1074 -27.7937,41.4903 -3.58952,12.8994 -20.2131,22.6073 -37.2347,28.591 -2.26073,8.24563 -15.5593,19.6815 -29.1237,23.6715 -4.78721,5.98372 -9.0429,12.5001 -16.6224,15.2936 -3.98993,9.57442 -24.3365,30.8517 -33.6451,32.979 -4.38798,1.59574 -9.97365,2.12844 -13.1651,3.85646 11.1702,53.4601 -27.7937,103.728 -62.9011,106.386 23.8038,29.3894 36.5708,73.0082 39.2296,108.913 6.11837,4.1234 16.2243,11.4371 23.538,33.1136 2.65996,7.71293 8.24563,31.2509 8.77714,37.8996 10.5064,8.91061 18.8843,14.3628 24.868,21.145 2.12844,2.39301 0.664989,12.2344 5.71796,23.6703l-10.7709 9.44213z"/>
   <path id="_223602248" class="fil2" d="M495.492 549.117c-7.31488,-2.12844 -20.8792,-9.0429 -27.1287,-14.2293 -10.3729,-13.0328 -16.4901,-23.538 -25.3995,-37.7674 -2.65996,-8.11216 -0.5327,-18.6173 3.58952,-27.7937 -8.64367,-6.64871 -9.57442,7.44717 -11.4359,18.8843l-6.78218 -9.17637c2.3942,-8.77714 5.18644,-14.2293 10.2394,-22.208 24.4688,-1.59574 27.2622,14.7609 30.1879,30.1867 1.3288,6.91565 1.72803,14.6286 3.45723,20.0808 6.24948,3.72299 19.5481,13.0328 23.9372,19.5481 0.797278,7.97987 2.39301,11.1713 4.25451,16.4901 0.930748,2.65996 -3.19147,4.25569 -4.9195,5.9849zm-162.107 -158.383c11.0379,4.78721 22.3415,8.5102 34.4436,9.70789 3.45723,0.265759 9.17519,-2.79343 12.8994,-2.26073 4.25451,4.92068 23.1388,41.4903 10.2394,53.9905 -18.485,-37.5004 -56.6504,-34.1766 -88.9656,-32.1817 1.8615,-11.4359 22.3415,-25.1337 31.3832,-29.256zm66.7233 -21.921c-2.79224,-20.6123 -25.0003,-49.6096 -17.0216,-49.3367 7.80151,0.26694 15.6077,33.6369 23.6703,34.1766 9.16811,0.613018 -18.837,-32.9542 -12.3667,-32.8467 6.78572,0.112209 24.3353,29.3894 25.5318,46.8103 0.442932,7.75663 -18.2748,13.2029 -19.8138,1.19651zm-27.7583 12.2131c-3.32494,-20.8781 -19.6993,-51.7746 -12.2344,-54.7889 6.36523,-2.57019 13.4226,38.8871 20.3914,36.2319 9.58269,-3.65212 -18.7933,-37.2512 -10.9505,-39.9548 6.6428,-2.29144 23.0065,33.1124 24.6022,50.6655 0.488997,6.19396 -20.2237,17.5885 -21.8088,7.8464zm-21.81 -53.5924c1.99497,0.265759 17.0216,43.0873 11.0379,57.8481 -2.26073,2.65996 -5.4522,3.19147 -8.51138,1.46227 -1.46227,-15.0266 0.908306,-33.0404 -3.2151,-43.4133 -7.84521,9.17637 -0.507896,29.7166 -8.48658,39.1576 -2.26073,0.13347 -5.31991,-0.663808 -7.04794,-3.32376 3.32376,-7.18141 7.84521,-53.0609 16.2231,-51.7309zm-9.70789 0.664989c-7.57946,13.4321 -6.51524,51.9967 -20.2131,47.4752 -16.4901,-5.58567 9.17637,-52.794 12.1021,-50.5332 8.24444,-0.26694 -18.6185,30.5859 -6.91565,31.3832 3.5907,0.265759 4.78721,-31.1175 15.0266,-28.3252zm-39.6288 39.0973c-12.2344,-4.52145 7.97987,-42.023 16.4901,-51.464 9.0429,3.98875 -18.485,31.1175 -13.0317,33.2447 5.4522,2.12844 15.4259,-32.314 21.6753,-26.596 1.32998,1.32998 -8.90943,18.3516 -14.4951,28.0595 -1.8615,3.32494 -6.11719,18.3516 -10.6386,16.7558zm-14.8943 -6.11719c-24.4688,-11.9686 11.1713,-41.7573 21.6765,-53.7247 9.49765,6.40657 -6.56721,19.893 -16.3566,38.0331 -2.4001,4.44704 -4.12222,10.6386 -5.31991,15.6916zm61.4388 -43.6188c-41.6238,-5.31873 -36.5708,-34.1766 -13.2986,-45.4803 -4.52145,-0.39923 -13.8301,2.52649 -17.82,3.85646 -0.531519,-5.98372 -0.132289,-9.57442 -1.3288,-15.0266 7.57946,-2.52649 24.601,0.531519 32.7132,-10.1071 -11.9686,-1.19651 -31.9159,7.97987 -38.5646,-9.17519l1.32998 -3.98993c7.84521,-2.65996 14.7609,0 24.203,-1.32998 3.85646,-4.12222 -1.72921,-9.97365 2.26073,-15.2924 6.781,-0.5327 19.5481,-0.930748 30.5859,-0.798459 1.06304,4.92068 1.3288,11.9686 5.71796,16.8893 -7.97869,17.1551 -11.1702,44.6818 -1.46345,74.6028 -3.98875,3.85646 -11.7017,7.44717 -24.3353,5.85143zm45.6126 -120.882c2.79343,-2.79224 15.2936,0 15.5593,4.12222 -2.65996,1.86268 -11.1702,3.85646 -16.8881,10.1071l1.3288 -14.2293zm-15.2924 32.0494c-6.78218,-9.30866 -1.06422,-29.1237 -0.531519,-34.5759 1.19651,-3.85646 10.3717,-2.12726 9.97365,2.52649 -1.19769,6.64989 0.664989,15.5593 -3.32494,23.538l-6.11719 8.51138zm-54.7511 4.2238c-6.24948,0 -5.98372,-5.71796 -5.98372,-6.51524 -0.13347,-9.0429 1.8615,-18.0858 4.78721,-26.4637 0,0 0.531519,-4.92068 6.11719,-4.65492 5.58567,0.265759 2.26073,4.52145 2.26073,5.18644 -1.19651,9.17637 -1.8615,19.0166 -1.8615,25.3995 0,0.798459 0.930748,7.04794 -5.31991,7.04794zm-16.7936 0.0318911c-6.25066,0 -5.18644,-6.64989 -5.4522,-7.71411 -2.26073,-9.17519 1.99497,-18.3516 4.9195,-26.7295 0,0 0.13347,-3.058 5.71914,-2.79224 5.58449,0.265759 6.38295,2.92571 5.85143,3.85646 -4.78839,7.71293 -5.18644,19.0166 -5.45338,25.3995 0,1.06422 0.664989,7.97987 -5.58449,7.97987zm-36.7031 -8.51138c-5.85143,-16.3566 14.6274,-3.5907 16.4889,-9.97365 1.99497,-7.3137 -19.1488,1.46227 -17.9523,-6.64989 1.8615,-11.3024 20.7458,0.5327 22.4738,-7.71293 0.798459,-4.38798 -20.6123,3.05918 -20.0796,-4.12222 0.265759,-5.18644 23.538,-5.85143 30.1867,-3.19147 -1.46227,9.70789 -9.17519,23.0065 -6.38295,32.3152 -6.64871,1.46227 -16.7558,-1.8615 -24.7345,-0.664989zm98.9392 -82.3169c-2.79343,0 -6.11719,-23.0053 -12.7671,-24.3353 -3.98875,3.72299 6.64989,13.1651 5.4522,23.6703 -8.77596,-1.19651 -18.2181,-0.664989 -27.1275,0.39923 1.06304,-9.70789 9.57442,-26.3303 21.1438,-33.6451 7.44717,5.9849 18.2181,24.203 21.2773,35.9059l-7.97869 -1.99497zm-183.251 80.4554c-3.85646,-1.32998 -26.0645,-3.19147 -41.0911,0l4.78721 -6.38295c16.8881,-3.45841 20.2131,1.72803 41.2246,-1.19769l-4.92068 7.58064zm-14.5778 -28.9489c0.265759,-2.92571 2.26073,-8.64367 7.3137,-8.77714 5.05415,-0.132289 4.65492,5.85143 4.65492,8.51138 -4.65492,0.265759 -7.44717,0.797278 -11.9686,0.265759z"/>
   <path id="_223602176" class="fil3" d="M398.015 313.737c-10.7721,-0.39923 -17.82,-4.12222 -20.2131,-10.7721 -16.7558,-46.411 11.7017,-99.6042 63.1669,-102.796 9.17519,1.32998 17.6866,5.85143 19.9473,14.6286 10.1071,38.2989 -19.2823,100.402 -62.9011,98.9392zm-269.423 14.2293c-0.5327,-21.6765 3.98875,-24.4699 8.64367,-37.9008 2.39301,-7.3137 0.132289,-11.0379 3.058,-18.3516 2.3942,-6.38295 9.30984,-14.2293 10.9056,-20.4788 2.12726,-8.51138 0.930748,-14.0971 5.4522,-24.0707l13.5644 -0.797278c-8.77714,11.7017 -5.4522,16.8881 -9.17637,28.7244 -1.32998,4.52145 -9.44213,13.4309 -10.7721,18.2181 -1.59574,5.18644 -0.930748,12.6336 -3.32376,18.3516 -1.99497,4.52145 -14.2293,21.2773 -18.3516,36.3051z"/>
   <path id="_223602104" class="fil0" d="M389.238 302.699c-13.0317,-24.4688 -7.84521,-77.3962 38.9639,-92.1571 -34.5747,25.0003 -39.7611,65.9591 -38.9639,92.1571z"/>
   <path id="_223602032" class="fil0" d="M343.758 295.517c-2.65877,-0.265759 -3.72299,-4.65374 -2.39301,-6.11719 1.32998,-1.46227 6.51642,-0.930748 6.64871,1.19769 0.13347,2.12726 -1.59574,5.18526 -4.25569,4.9195z"/>
   <path id="_223601960" class="fil4" d="M492.989 196.728c-5.79592,1.7422 -23.3467,1.45164 -33.651,1.45164 3.86355,5.51716 18.9988,3.4844 23.9904,3.62968 -9.17755,0.726409 -21.093,0.290564 -15.1353,7.40583 15.6184,-1.5981 17.8732,-4.64665 24.7959,-12.4871zm16.4499 -17.4314c-5.79592,1.74338 -15.1353,2.03276 -25.4397,2.03276 -0.483091,3.3403 2.41546,4.21081 7.40583,4.35609 -8.21137,2.17805 -11.2706,3.19502 -14.8128,8.42162 21.5761,1.16225 30.9143,-4.93604 32.8467,-14.8105zm-28.3299 6.58374c-1.77055,-5.22778 -5.31282,-4.06553 -18.8382,-3.63086 1.93118,5.0825 3.86355,4.50137 9.17755,4.21081 -13.0423,2.03276 -13.3647,3.63086 -14.9747,8.71218 19.1607,-0.290564 20.4493,-3.77496 24.6353,-9.29213zm-21.908 1.21895c-1.44927,-5.51716 -4.186,-4.35609 -24.1522,-3.04974 0.161818,4.93722 5.7971,3.3403 11.1099,3.63086 -10.9481,2.03276 -12.7198,2.46861 -13.8467,5.2266 16.9058,-3.77496 19.6437,6.67942 26.8889,-5.80773zm10.7497 -16.7913c-1.44927,-5.51716 -6.60146,-5.51716 -26.5677,-4.21081 -0.483091,7.40583 6.76328,4.79194 12.0761,5.0825 -13.0423,2.03276 -15.6184,3.92025 -18.0338,9.29213 19.6449,-1.30635 25.9239,-2.17805 32.5254,-10.1638zm22.8588 -2.12844c-1.77055,-5.22778 -7.40701,-4.35609 -20.9324,-3.92025 1.93237,5.08132 5.95773,4.79075 11.2717,4.50019 -13.0423,2.03276 -14.4916,3.77614 -16.1015,8.85746 19.1607,-0.290564 21.5761,-3.92025 25.7621,-9.43741zm31.0301 -5.38369c-5.79592,0.581127 -18.9988,0.871691 -29.3044,0.871691 0.160637,3.62968 0.805546,4.35609 10.9493,4.50137 -11.4324,1.88748 -13.5254,2.75799 -17.0677,7.98577 21.5761,1.16107 28.6607,-2.32333 35.4228,-13.3588zm31.8391 -22.5978c-13.686,2.17805 -28.9831,2.75917 -44.7621,3.04974 0.160637,3.62968 4.186,6.82352 17.3889,6.09829 -15.9397,1.59692 -22.2198,3.77496 -25.7621,9.00156 29.9493,0.581127 39.9324,-0.870509 53.1353,-18.1496zm-47.956 8.48067c-2.09418,-5.51834 -1.93237,-7.11526 -21.2548,-4.79194 0.483091,6.53414 5.15337,6.09829 10.4662,6.38885 -13.0423,2.03276 -17.2283,3.77496 -18.8382,8.85746 24.4735,-0.290564 25.4397,-4.93722 29.6268,-10.4544zm-23.3927 2.12844c-1.44927,-5.51716 -3.221,-7.11408 -30.7548,-4.79194 -0.483091,7.40583 11.2717,5.37306 16.5846,5.66363 -13.0423,2.03276 -19.3213,0.579946 -23.186,10.3091 28.9831,-1.30754 28.6607,-4.35609 37.3563,-11.1808zm12.3005 -19.5008c-4.18719,-5.51716 -0.644909,-9.00274 -28.1788,-3.92025 -0.483091,7.40465 8.69564,4.50137 14.0085,4.79194 -13.0423,2.03276 -20.6099,0.579946 -24.4735,10.3091 28.9819,-1.30754 32.5242,-3.48558 38.6438,-11.1808zm29.993 -2.72846c-4.18719,-5.51834 -9.01692,-7.11526 -28.3394,-4.79194 0.483091,6.53414 6.11837,6.09829 11.4324,6.38885 -13.0423,2.03276 -15.779,3.92025 -17.3901,9.00274 24.4747,-0.290564 30.1099,-5.0825 34.2971,-10.5997zm62.3129 -13.6494c-13.6872,2.17805 -45.2464,5.37306 -61.0254,6.67942 -0.483091,8.27634 9.82246,4.21081 26.7283,4.35609 -22.8636,4.06553 -28.1776,2.03276 -32.8467,11.3261 25.1184,0 48.9481,-3.19502 67.1438,-22.3616zm-34.7802 -1.01579c19.9662,-1.01697 58.1269,-4.21081 64.5677,-31.2179 -18.3563,5.95301 -44.6015,11.906 -64.4059,14.5199 3.05918,8.5669 18.5157,3.33912 32.0411,1.59692 -3.38046,1.45164 -30.4312,6.24357 -32.2029,15.101zm1.44927 -9.00274c-2.41546,-7.25936 -11.1099,-7.84049 -37.5158,-4.35609 2.57609,8.27634 8.21137,6.24357 26.0834,5.22778 -18.3551,2.46861 -24.1522,3.62968 -27.372,12.1966 27.372,-2.75917 32.3636,-4.21081 38.8044,-13.0683zm-134.93 90.8944c25.6015,-19.8918 22.2198,-79.4231 79.0581,-85.3772 1.60991,1.30754 -23.6691,4.35609 -23.9916,13.7947 6.44082,-4.21081 37.8394,-1.30754 42.9916,-16.5527 -6.28019,-10.0185 -35.2621,-3.77496 -51.203,4.21081 -22.8648,11.6155 -37.0339,63.5968 -54.9059,83.0539 1.28746,2.61389 4.82973,1.88748 8.05074,0.870509zm-34.8948 201.046c0,-12.6336 27.261,-12.7659 39.2296,-15.4259 7.58064,14.0959 12.1021,37.3681 14.7609,54.124 5.71914,4.25569 10.2406,8.77714 12.8994,14.0959 -5.18526,-0.265759 -11.8351,-0.39923 -18.6173,-1.06422 -3.32376,4.52145 -7.57946,11.8363 -9.17519,16.3578 -3.5907,-4.65492 -8.24563,-15.2936 -9.5756,-23.2722 -12.8994,-12.3678 -23.6703,-28.7244 -29.5217,-44.8153zm-63.9653 -8.37791c-15.4259,8.37791 -25.5318,20.2131 -28.4575,32.1817 -9.30866,0 -22.475,3.19147 -30.8529,-5.4522 -7.18023,-7.3137 0.26694,-34.8416 8.24563,-53.9917 9.84018,3.45841 37.5004,7.58064 35.9047,18.485l-16.6224 20.3465c11.8351,-9.44213 18.0858,-19.815 31.7825,-11.5694zm65.9603 -296.02c3.32376,3.32494 5.58449,6.11719 6.91447,11.4371 -13.9624,-2.79343 -6.64871,-13.8301 -35.6389,-1.86268 5.31873,-7.97869 20.6123,-21.4096 32.5809,-20.2131 11.7017,1.06422 16.8881,15.6916 22.208,26.4637 -8.77714,5.05297 -10.7721,-8.37791 -14.2293,-14.4951 1.99497,6.78218 2.52649,9.70789 3.85646,14.4951 -7.8464,2.26073 -6.11719,-14.8943 -15.6916,-15.8251zm-83.7791 15.2936c2.65877,-9.17637 2.92571,-20.6123 15.9574,-25.9322 14.0959,-5.71796 38.0331,10.7721 30.7194,22.6073 -4.78721,-12.2344 -21.2773,-13.0328 -23.6715,-6.78218 -4.38798,2.26073 -0.797278,-5.71796 -1.99497,-6.38295 -1.8615,5.98372 -3.45723,8.90943 -6.38295,10.3729 -4.52145,2.26073 -3.32376,-1.99497 -1.72803,-9.5756 -3.19147,7.44717 -5.31991,15.6928 -12.8994,15.6928zm33.2459 103.195c-1.19769,-5.4522 0.531519,-15.5593 3.058,-22.3415 5.18644,3.85646 7.04794,6.38295 11.8351,7.8464 7.58064,-2.65996 11.0379,-5.31991 18.7508,-13.6978l-3.058 28.1929c-8.51138,-0.39923 -22.208,0 -30.5859,0zm14.7609 -19.815c-11.5694,-5.85143 -17.2885,-18.2181 -17.6866,-30.1867 0,-2.12844 0.797278,-4.65492 1.19651,-5.18644 1.72921,-1.8615 6.24948,-2.65996 8.5102,-0.13347 -0.797278,1.19651 -1.8615,1.32998 -3.32376,1.59574 -2.3942,0.664989 -3.05918,1.99497 -3.19147,3.85646 0,0 7.44717,-0.398048 7.44717,0.5327 0,2.92571 -0.5327,10.9044 2.79224,10.7709 1.99497,0 11.5694,1.59574 9.0429,-3.19147 -2.12844,0 -4.78721,-0.265759 -7.97869,-0.797278 -0.39923,-5.18644 -0.39923,-12.1021 -0.39923,-16.0908 -6.51642,-3.72417 -13.6978,1.19651 -12.6336,-4.25569 10.7721,-1.46345 27.926,-2.52649 39.6288,1.46227 0.531519,2.3942 -1.8615,9.0429 0.39923,9.0429 4.12222,0 2.79224,7.8464 -1.32998,11.1702 -5.71796,8.64486 -12.6336,18.485 -22.4738,21.4108zm14.6274 -29.921c-4.12222,-0.13347 -8.64367,-0.531519 -11.5694,-0.265759 -0.39923,-1.59574 -0.132289,-5.05415 0.13347,-9.30866 2.79224,-1.19769 9.0429,-1.99497 14.3616,-1.32998 0.5327,1.46227 0.930748,2.92571 -1.19651,2.92571 -5.18644,0 -8.90943,0.930748 -9.30866,3.32376 3.5907,0.265759 7.18141,0 7.57946,4.65492zm-14.2825 21.1096c-5.31873,-0.13347 -5.05297,-2.12844 -5.58449,-5.85143 2.52649,-0.13347 5.98372,0.13347 11.3036,0.39923 0.132289,3.85646 -0.39923,5.58449 -5.71914,5.4522zm-116.04 29.8229c-23.2722,-7.3137 -45.7472,-1.06422 -70.4817,-2.3942 0.930748,-2.65877 2.65996,-6.78218 3.98993,-10.9044 27.7937,0 62.2361,-11.4359 91.6255,-6.11719 1.32998,7.58064 -2.92571,12.1021 -0.39923,18.7508 -5.58567,2.12726 -18.7508,2.52649 -24.7345,0.664989zm-14.4585 -41.0769c4.78721,1.59574 10.3729,2.12726 18.8831,2.12726 0.39923,3.058 -1.99497,3.85646 -6.11719,3.98993 6.78218,1.99379 9.30866,2.92453 12.2344,7.71293 -17.82,1.06304 -23.4045,-4.78839 -25.0003,-13.8301zm21.3422 6.0416c1.46345,-4.78721 4.38916,-3.72299 15.5593,-3.32376 -1.59574,4.65374 -3.19147,4.12222 -7.57946,3.85646 10.7709,1.8615 11.0367,3.32494 12.3667,7.97869 -15.8251,-0.265759 -16.8881,-3.45723 -20.3465,-8.51138zm18.0728 1.56857c1.19651,-5.05297 2.26073,-5.31873 18.7508,-4.12222 -0.13347,4.52145 -3.5907,4.38798 -7.97987,4.65374 9.0429,1.86268 9.84136,3.32494 11.8363,8.24563 -16.2243,-1.19651 -17.1551,-1.46345 -22.6073,-8.77714zm-8.69801 -15.5664c1.19769,-5.05297 5.45338,-5.05297 21.9423,-3.85646 0.39923,6.78218 -5.58449,4.38798 -9.97365,4.65374 10.7721,1.86268 12.8994,3.5907 14.8943,8.51138 -16.2243,-1.19651 -21.4096,-1.99497 -26.863,-9.30866zm-18.6752 -2.20285c1.46345,-4.78721 6.11719,-3.98875 17.2885,-3.58952 -1.59574,4.65374 -4.92068,4.38798 -9.30866,4.12222 10.7709,1.8615 11.9674,4.25569 13.2974,8.90943 -15.8251,-0.265759 -17.8189,-4.38798 -21.2773,-9.44213zm-23.7423 -5.14156c4.78721,0.531519 13.5644,1.06304 22.0746,1.06304 -0.132289,3.32494 -0.664989,3.98993 -9.0429,4.12222 9.44213,1.72921 11.1713,2.52767 14.0971,7.31488 -17.82,1.06304 -21.5442,-2.3942 -27.1287,-12.5001zm-23.2037 -20.6643c11.3036,1.99497 18.7508,2.79224 31.7836,3.05918 -0.13347,3.32376 -3.45841,6.24948 -14.3628,5.58449 13.1651,1.46345 18.3516,3.45841 21.2773,8.24563 -20.7446,0 -23.6703,0.664989 -38.6981,-16.8893zm34.2097 8.10507c1.72921,-5.05297 1.59574,-6.51524 17.5543,-4.38798 -0.39923,5.9849 -4.25569,5.58567 -8.64486,5.85143 10.7721,1.8615 14.2293,3.45723 15.5593,8.11216 -20.2131,-0.265759 -21.0115,-4.52145 -24.4688,-9.5756zm19.378 1.90284c1.19651,-5.05297 2.65877,-6.51642 25.3995,-4.38798 0.39923,6.78218 -9.30866,4.9195 -13.6978,5.18526 10.7721,1.86268 15.9586,0.5327 19.15,9.44213 -23.9372,-1.19651 -23.6715,-3.98875 -30.8517,-10.2394zm-9.90042 -18.0008c3.45723,-5.05297 2.92571,-8.24444 25.6653,-3.5907 0.39923,6.78218 -9.57442,4.12222 -13.9636,4.38798 10.7721,1.86268 19.4158,0.5327 22.6073,9.44213 -23.9372,-1.19651 -29.256,-3.19147 -34.3089,-10.2394zm-24.7782 -2.20285c3.45723,-5.05297 7.44717,-6.51524 23.4045,-4.38798 -0.398048,5.9849 -5.05297,5.58567 -9.44095,5.85143 10.7709,1.8615 13.0317,3.5907 14.3616,8.24444 -20.2131,-0.265759 -24.868,-4.65374 -28.3252,-9.70789zm-46.8103 -12.5001c11.3036,1.99497 32.7144,4.92068 45.746,6.11719 0.39923,7.58064 -8.11097,3.85646 -22.0746,3.98993 18.8831,3.72299 23.2722,1.8615 27.1287,10.3729 -20.7458,0 -35.7724,-2.92571 -50.8002,-20.48zm131.919 74.604c-4.25569,-1.8615 -5.31873,-5.9849 -6.38295,-9.17637 -10.9044,-29.3894 -14.3628,-61.4376 -56.5181,-69.5498 -1.32998,1.19651 19.5493,3.98993 19.815,12.6336 -5.31991,-3.85646 -31.2509,-1.19651 -35.5066,-15.1601 5.18644,-9.17637 33.3782,-0.798459 46.6768,7.18141 18.6173,9.30866 25.1337,40.1604 31.7825,62.1026 0.931929,2.92571 3.05918,6.25066 5.31991,8.11216 0.265759,2.52649 -2.3942,4.52145 -5.18644,3.85646zm-109.046 -83.7791c5.31991,-6.64989 9.17637,-7.18141 30.9852,-3.98993 -2.12726,7.58064 -6.78218,5.71796 -21.543,4.78721 15.1601,2.26073 19.9473,3.32494 22.6073,11.1713 -22.6073,-2.52767 -26.7295,-3.85646 -32.0494,-11.9686zm1.19769 8.24444c-16.4901,-0.930748 -42.688,-9.44213 -49.3367,-25.3995 15.1601,5.4522 32.8467,7.71293 49.2033,10.1071 -2.52649,7.84521 -15.2936,3.058 -26.4637,1.46227 2.79224,1.32998 25.1337,5.71796 26.5972,13.8301z"/>
   <path id="_223601768" class="fil0" d="M244.966 643.562c-9.8201,10.3977 -17.9075,20.7954 -31.1931,23.9727 10.3977,20.2178 10.1095,47.3666 36.9701,75.9611 -9.24252,4.04309 -23.1057,12.1304 -24.8396,23.9727l10.3977 -1.15517c-1.15517,6.35342 -0.577584,12.708 0.866966,16.7511 1.73275,-3.17612 5.48763,-5.48763 9.8201,-6.06522 0,6.06522 4.91005,15.3077 9.8201,20.2178 1.15517,-14.1526 4.33247,-49.6781 36.3925,-41.3014 -2.02213,-11.8422 -10.9753,-14.1526 -23.6845,-16.1747 -3.4655,-20.7954 -9.53072,-41.5907 -17.3287,-58.343 10.1083,-1.73275 19.3508,-8.37555 30.3261,-19.9284 6.93218,29.1709 17.9075,53.1436 32.6376,72.2062 2.31033,18.1957 12.9974,38.7028 24.8385,52.2778 -3.4655,6.6428 -19.0614,24.5503 -28.5933,22.8163 15.8853,-14.1526 9.8201,-44.1905 -20.2178,-44.1905 -22.2399,0 -31.1931,33.5046 -11.5529,46.7902 -30.6155,13.575 -83.4709,-18.7732 -95.0237,-45.0562 -12.1316,-33.2152 -49.3899,-33.2152 -77.4056,-33.2152 25.9936,30.0379 47.0784,12.9974 57.1879,28.0158 -6.06522,-1.44455 -17.0417,-5.19825 -22.5293,-1.73275 10.9753,2.59972 28.5945,12.4198 35.2373,19.0626 18.7732,23.6833 54.0106,46.7902 74.2283,47.3678 8.66493,0 30.9049,-1.15517 42.4577,-7.50977 31.7706,7.79797 50.2557,-11.8422 56.8985,-25.1278 32.9258,17.9075 63.5413,3.1773 109.754,-38.1252 14.1526,26.8606 50.8333,42.7459 81.7381,48.5229 15.0184,2.59972 23.6833,11.8422 29.1709,20.2178 30.0379,-13.575 40.725,-16.1747 49.6781,-8.37555 0.577584,-2.59972 0.289382,-5.77702 -2.31033,-8.08735 2.59972,-3.46668 8.08735,-1.73275 12.708,-2.02213 -1.15517,-5.19825 -4.04309,-7.79797 -13.2856,-11.2647 4.91005,-4.33129 8.66493,-4.04309 14.442,-4.04309 -2.31152,-4.33247 -6.3546,-8.66493 -15.3077,-8.37555 4.33129,-3.75488 6.6428,-4.62185 11.8411,-6.06522 -9.24252,-8.37673 -38.1252,-0.577584 -53.7212,10.6859 -37.2583,-19.0626 -59.4982,-33.7928 -84.9154,-59.2088 4.33247,-2.8891 10.1095,-8.37673 16.7523,-14.7302 27.15,18.485 70.7628,2.31033 93.5792,6.6428 3.46668,4.04309 6.3546,6.93218 11.2647,7.79797 1.44455,-21.0848 20.2178,-17.6181 29.7497,-26.8606 3.4655,-3.1773 11.8411,-22.2399 14.7302,-24.8396 2.31033,-1.73275 6.6428,-4.33247 13.2856,-4.91005 -4.04427,-6.6428 -17.3299,-4.33247 -23.9727,-1.44337 -49.1005,53.1436 -93.291,13.2856 -151.345,5.48763 -25.9948,8.08735 -71.918,24.8385 -95.0249,38.1252 -0.865785,-10.3977 -8.37555,-22.5293 -15.8853,-27.7276 17.6193,-26.283 19.6402,-30.6155 16.1747,-52.566 21.0848,-0.289382 54.8775,-14.7302 63.8307,-9.24252 36.9701,-22.2399 42.4577,-31.4824 71.6286,-51.9896 7.79915,4.62185 37.2595,0.866966 42.7471,-10.9753 -7.22157,2.88792 -12.4198,3.75488 -18.7744,2.02213 5.48763,-2.02213 15.5971,-1.44455 19.0626,-15.0195 -4.33247,2.8891 -9.24252,4.33247 -11.8422,4.33247 6.64398,-6.35342 16.7523,-14.7302 8.95432,-22.8163 -6.93218,12.708 -19.0626,25.7054 -33.2152,18.7732 -3.1773,-9.5319 0.288201,-8.95314 5.19825,-13.2856 -15.0184,-4.91005 -15.8853,6.06522 -20.2178,22.8163 -27.7264,6.06522 -67.5844,12.4198 -75.0941,32.927 -19.6402,-2.31152 -41.0132,-2.59972 -52.8554,5.19825 17.9075,-99.3562 -113.798,-83.7591 -144.124,-144.702l-4.33247 -1.44455c13.575,21.3741 4.33247,41.0143 4.33247,60.9427 15.8853,10.9753 11.8422,30.9049 9.24252,44.1905 13.2856,5.19943 17.3299,19.9296 14.4408,30.3273 8.08735,4.33247 9.24252,6.6428 10.9753,12.4186 -16.1735,-0.865785 -30.9037,-3.17612 -45.0562,-9.53072 -6.6428,-21.0848 -14.7302,-47.656 -33.2152,-56.8985 -54.5881,-22.5293 -109.466,7.50859 -160.01,3.75488 28.3051,17.0405 58.0536,42.7459 62.0967,56.3209 18.485,0.288201 37.837,7.22039 45.635,22.5281 12.4198,-0.866966 33.2152,7.50977 40.4356,15.8853 15.5971,-1.15517 32.3482,-0.577584 45.635,15.5971m49.1005 131.994c7.79797,0 14.1526,6.6428 14.1526,14.1526 0,7.50859 -7.22039,14.4408 -14.442,17.0405 -8.37555,-2.8891 -13.8632,-9.5319 -13.8632,-17.0405 0,-7.50977 6.3546,-14.1526 14.1526,-14.1526z"/>
   <path id="_223601888" class="fil4" d="M205.841 611.837c12.4198,-10.3977 19.352,-16.4629 69.0301,-1.15517 5.77584,5.77702 -29.7497,20.2178 -30.3273,33.2152 7.79915,-7.79797 16.7523,-16.4629 30.0379,-22.8175 9.8201,-5.19825 30.6155,-19.6402 46.2126,-20.7954 2.31033,4.62067 -0.577584,8.08735 1.73275,10.9753 1.73275,1.73275 6.93218,5.19943 10.3977,1.73275 -10.9753,-4.33247 -6.35342,-7.50859 -5.19825,-15.5959 3.4655,-3.46668 7.79797,-4.33247 12.9974,-4.33247 1.15517,7.79797 9.53072,8.37555 16.4629,7.22039 2.31033,1.15517 4.62067,6.3546 9.24252,6.3546 1.15517,0 9.8201,0.577584 8.08617,-2.8891 4.04427,1.15517 8.66493,-1.73275 5.77702,-6.35342 3.4655,1.15517 10.9753,-3.46668 5.19943,-8.08735 5.19825,-0.577584 8.08617,-5.77702 4.04309,-9.24252 3.4655,-0.577584 4.04309,-5.77702 0,-8.08735 2.88792,-2.88792 -1.15517,-5.77584 -2.88792,-7.50977 3.4655,-3.4655 -3.46668,-8.08617 -8.08735,-10.9753 -1.15517,-5.19825 4.04309,-16.1735 -4.04427,-18.485 -2.88792,0 -0.865785,14.442 -8.66375,7.50977 -6.64398,-7.22039 -2.02213,-12.1304 -8.66493,-20.7954 -7.79915,4.04309 1.44337,11.5529 -1.73275,16.7523 -5.19943,0 -18.7744,-2.59972 -20.5072,6.931 -9.24252,5.19943 -16.7523,2.8891 -27.7276,9.24252 4.62185,2.31152 5.48763,5.48763 6.6428,9.5319 -3.4655,2.88792 -12.9974,6.06522 -17.0405,9.53072 -2.31033,11.554 17.0405,17.0417 19.9296,18.1968 -8.08735,15.0184 -31.1942,9.53072 -45.635,11.8411 -14.442,-1.73275 -27.15,-5.19825 -37.5477,-11.5529 -5.19825,-24.2609 -16.7523,-56.0315 -46.7902,-60.0758 -33.5034,-4.04309 -71.6286,3.4655 -107.442,5.19943 31.1931,10.3977 74.2283,-3.75488 109.464,5.77584 -14.4408,0.577584 -32.6376,7.22039 -51.9884,23.1069 21.373,-2.8891 61.5203,-39.5698 78.849,-0.577584 -8.08617,1.15517 -9.53072,-6.93218 -46.5008,16.4629 6.6428,2.59854 58.6324,-34.6597 58.6324,12.4186 -12.7092,0.289382 -18.1968,9.24252 -21.9517,17.3299zm147.226 -23.6242c-2.92571,0.265759 -1.99379,-5.18644 -7.3137,-5.18644 -11.7029,5.71914 -41.4903,8.24563 -46.2776,-7.97869 5.4522,-1.59574 18.0858,-9.30866 15.6916,-4.78721l-2.52649 4.65492c-1.06422,2.26073 4.25569,4.12222 5.85143,2.26073 -2.3942,-4.92068 7.84521,-4.65492 1.99379,-11.1713 -0.398048,-0.531519 2.12844,-1.06304 1.59692,-1.46227 -3.19266,-2.26073 -6.51642,-5.18644 -8.51138,-8.11216 4.78721,-1.19651 11.8351,-2.79224 19.0166,-4.12222 3.5907,-8.64367 20.0808,-4.92068 29.921,2.52649 2.52649,3.85646 5.31991,9.44213 1.72921,11.8351 -2.52649,1.99497 -3.72417,4.38916 -1.19769,5.85143 -4.12222,0.930748 -5.05297,2.52649 -2.39301,4.65492 -3.72417,0 -6.11719,1.3288 -4.65492,4.52145 -2.92571,0 -0.930748,2.52649 0,6.11719l-2.92571 0.398048zm-2.24655 -23.2971l-5.1073 -3.58362c-4.30176,3.48086 -10.6186,2.76508 -12.232,0.81972 -2.01505,-2.25246 -1.34297,-9.41851 4.70453,-9.41851 3.8978,0.511439 9.81183,2.96824 12.7694,6.04041 2.95642,2.86548 2.419,5.22069 -0.134651,6.14199zm-15.557 -8.03184c0.520888,-0.898857 1.88748,-1.50715 3.38164,-1.50715 1.98788,0 3.60842,1.04414 3.60842,2.32451 0,1.28155 -1.62054,2.32569 -3.60842,2.32569 -1.9867,0 -3.60724,-1.04414 -3.60724,-2.32569 0,-0.271665 0.0838618,-0.562229 0.2256,-0.817358z"/>
  </g>
 </g>
</svg>
